<?xml version="1.0" encoding="UTF-8"?>
<!DOCTYPE svg PUBLIC "-//W3C//DTD SVG 1.1//EN" "http://www.w3.org/Graphics/SVG/1.1/DTD/svg11.dtd">
<svg xmlns="http://www.w3.org/2000/svg" version="1.1" width="179px" height="56px" style="shape-rendering:geometricPrecision; text-rendering:geometricPrecision; image-rendering:optimizeQuality; fill-rule:evenodd; clip-rule:evenodd" xmlns:xlink="http://www.w3.org/1999/xlink">
<g><path style="opacity:0.998" fill="#d4d4d4" d="M 66.5,2.5 C 68.8568,2.33669 71.1902,2.50335 73.5,3C 74.8333,4 74.8333,5 73.5,6C 71.1667,6.33333 68.8333,6.66667 66.5,7C 62.9746,15.9393 60.4746,25.106 59,34.5C 60.9995,32.403 63.1662,31.403 65.5,31.5C 62.7906,35.3531 59.124,37.3531 54.5,37.5C 55.5304,28.3721 57.3637,19.3721 60,10.5C 61.3046,7.03864 63.4713,4.37197 66.5,2.5 Z"/></g>
<g><path style="opacity:0.999" fill="#d9d9d9" d="M 36.5,13.5 C 38.4832,13.1568 39.8166,13.8235 40.5,15.5C 40.33,16.8221 40.6634,17.9887 41.5,19C 38.8875,20.0712 38.8875,20.9045 41.5,21.5C 40.5,22.1667 39.5,22.8333 38.5,23.5C 38.201,27.5298 37.201,31.3632 35.5,35C 36.1079,35.8699 36.9412,36.3699 38,36.5C 41.0081,36.0063 43.5081,34.6729 45.5,32.5C 44.5946,33.9643 44.5946,35.2976 45.5,36.5C 45.0825,37.2216 44.4158,37.7216 43.5,38C 37.8333,38.6667 32.1667,38.6667 26.5,38C 29.1994,37.0336 31.0327,35.2003 32,32.5C 33.2728,26.9059 34.7728,21.4059 36.5,16C 34.1582,14.6081 34.1582,13.7748 36.5,13.5 Z"/></g>
<g><path style="opacity:0.999" fill="#d4d4d4" d="M 159.5,15.5 C 160.833,15.5 162.167,15.5 163.5,15.5C 163.649,16.552 163.483,17.552 163,18.5C 155.107,21.7542 151.107,27.7542 151,36.5C 149.644,37.3802 148.144,37.7135 146.5,37.5C 147.287,31.8514 148.621,26.3514 150.5,21C 148.953,20.6666 147.62,21.1666 146.5,22.5C 146.594,18.9132 148.761,16.9132 153,16.5C 153.833,16.8333 154.667,17.1667 155.5,17.5C 154.674,18.451 154.508,19.451 155,20.5C 156.707,18.9625 158.207,17.2959 159.5,15.5 Z"/></g>
<g><path style="opacity:1" fill="#999999" d="M 47.5,16.5 C 47.427,18.0269 48.0937,19.0269 49.5,19.5C 48.8333,20.5 48.1667,21.5 47.5,22.5C 46.7777,21.4489 45.7777,20.7822 44.5,20.5C 45.0256,18.7697 46.0256,17.4363 47.5,16.5 Z"/></g>
<g><path style="opacity:0.998" fill="#d3d3d3" d="M 100.5,40.5 C 100.663,38.1432 100.497,35.8098 100,33.5C 99.0255,35.8776 98.3589,35.5443 98,32.5C 97.5357,33.0944 97.369,33.7611 97.5,34.5C 96.8333,34.5 96.5,34.8333 96.5,35.5C 92.7993,37.4407 89.2993,39.774 86,42.5C 85.0339,45.3397 85.8672,47.3397 88.5,48.5C 87.6618,48.8417 87.3284,49.5084 87.5,50.5C 81.7327,49.5773 80.2327,46.5773 83,41.5C 84.5793,39.9588 86.4127,38.7922 88.5,38C 85.4432,29.0721 88.1099,22.0721 96.5,17C 99.4816,16.502 102.482,16.3354 105.5,16.5C 103.298,24.5152 101.631,32.5152 100.5,40.5 Z M 97.5,19.5 C 98.675,19.281 99.675,19.6143 100.5,20.5C 99.5077,24.9853 97.841,29.152 95.5,33C 93.0752,33.9859 91.4085,33.3193 90.5,31C 91.0966,25.963 93.4299,22.1296 97.5,19.5 Z"/></g>
<g><path style="opacity:1" fill="#d5d5d5" d="M 135.5,16.5 C 143.928,15.5456 145.595,18.3789 140.5,25C 138.167,26.1667 135.833,27.3333 133.5,28.5C 132.201,30.3066 132.368,31.9732 134,33.5C 144.576,29.5069 145.076,30.6736 135.5,37C 133.167,37.6667 130.833,37.6667 128.5,37C 126.724,28.8278 129.058,21.9945 135.5,16.5 Z M 137.5,18.5 C 139.273,19.3143 139.773,20.6476 139,22.5C 137.333,23.8333 135.667,25.1667 134,26.5C 133.796,23.2398 134.963,20.5731 137.5,18.5 Z"/></g>
<g><path style="opacity:0.998" fill="#d8d8d8" d="M 117.5,16.5 C 120.572,16.1826 123.572,16.5159 126.5,17.5C 123.197,25.8489 121.363,34.5155 121,43.5C 117.903,50.1323 112.736,52.299 105.5,50C 101.215,47.9208 100.548,45.0875 103.5,41.5C 105.028,40.1387 106.695,38.972 108.5,38C 106.261,33.0421 106.761,28.2088 110,23.5C 112.396,20.9334 114.896,18.6 117.5,16.5 Z M 118.5,19.5 C 119.586,19.62 120.253,20.2867 120.5,21.5C 120.037,27.1024 117.537,31.4357 113,34.5C 111.482,32.3863 111.149,30.053 112,27.5C 112.612,23.4029 114.779,20.7363 118.5,19.5 Z M 116.5,34.5 C 118.681,41.1068 116.514,45.7734 110,48.5C 108.229,47.6959 106.729,46.5292 105.5,45C 108.404,40.5935 112.071,37.0935 116.5,34.5 Z"/></g>
<g><path style="opacity:0.949" fill="#d5d5d5" d="M 49.5,19.5 C 48.0937,19.0269 47.427,18.0269 47.5,16.5C 46.7764,12.1198 44.1097,10.1198 39.5,10.5C 38.609,11.1098 37.609,11.4431 36.5,11.5C 24.9324,15.5752 22.2658,22.5752 28.5,32.5C 23.672,32.2366 21.672,29.5699 22.5,24.5C 25.5598,11.286 33.8932,6.11938 47.5,9C 51.2127,10.6912 52.3794,13.5245 51,17.5C 50.7216,18.4158 50.2216,19.0825 49.5,19.5 Z"/></g>
<g><path style="opacity:0.91" fill="#7f7f7f" d="M 36.5,13.5 C 36.5,13.1667 36.5,12.8333 36.5,12.5C 37.8333,12.5 39.1667,12.5 40.5,12.5C 42.5567,12.9567 42.5567,13.9567 40.5,15.5C 39.8166,13.8235 38.4832,13.1568 36.5,13.5 Z"/></g>
<g><path style="opacity:0.016" fill="#0f0f0f" d="M 39.5,10.5 C 39.8333,11.1667 40.1667,11.8333 40.5,12.5C 39.1667,12.5 37.8333,12.5 36.5,12.5C 36.5,12.1667 36.5,11.8333 36.5,11.5C 37.609,11.4431 38.609,11.1098 39.5,10.5 Z"/></g>
<g><path style="opacity:0.999" fill="#d5d5d5" d="M 44.5,20.5 C 45.7777,20.7822 46.7777,21.4489 47.5,22.5C 50.2867,23.3775 51.62,25.3775 51.5,28.5C 51.3534,32.6366 49.3534,35.3032 45.5,36.5C 44.5946,35.2976 44.5946,33.9643 45.5,32.5C 47.4189,26.4031 45.0855,23.4031 38.5,23.5C 39.5,22.8333 40.5,22.1667 41.5,21.5C 42.391,20.8902 43.391,20.5569 44.5,20.5 Z"/></g>
<g><path style="opacity:0.997" fill="#d4d4d4" d="M 76.5,36.5 C 76.1583,35.6618 75.4916,35.3284 74.5,35.5C 76.475,34.3536 77.975,32.687 79,30.5C 79.6667,27.1667 79.6667,23.8333 79,20.5C 76.9659,18.4402 74.9659,18.7735 73,21.5C 71.6842,24.6883 71.1842,28.0217 71.5,31.5C 70.6862,29.369 70.1862,27.0356 70,24.5C 69.6174,23.944 69.1174,23.6107 68.5,23.5C 71.39,16.9752 76.2233,14.9752 83,17.5C 86.4562,25.894 84.2895,32.2273 76.5,36.5 Z"/></g>
<g><path style="opacity:0.998" fill="#e4e4e4" d="M 68.5,23.5 C 69.1174,23.6107 69.6174,23.944 70,24.5C 70.1862,27.0356 70.6862,29.369 71.5,31.5C 72.1224,33.1216 73.1224,34.4549 74.5,35.5C 75.4916,35.3284 76.1583,35.6618 76.5,36.5C 70.1139,39.1368 66.7806,36.9701 66.5,30C 66.336,27.4563 67.0027,25.2897 68.5,23.5 Z"/></g>
<g><path style="opacity:0.012" fill="#151615" d="M 28.5,32.5 C 29.8333,33.1667 29.8333,33.1667 28.5,32.5 Z"/></g>
<g><path style="opacity:0.995" fill="#dcdcdc" d="M 100.5,40.5 C 99.7566,48.2242 95.4233,51.5575 87.5,50.5C 87.3284,49.5084 87.6618,48.8417 88.5,48.5C 95.5202,46.7864 98.1869,42.4531 96.5,35.5C 97.1667,35.5 97.5,35.1667 97.5,34.5C 97.369,33.7611 97.5357,33.0944 98,32.5C 98.3589,35.5443 99.0255,35.8776 100,33.5C 100.497,35.8098 100.663,38.1432 100.5,40.5 Z"/></g>
</svg>
