<?xml version="1.0" standalone="no"?>
<!DOCTYPE svg PUBLIC "-//W3C//DTD SVG 20010904//EN"
 "http://www.w3.org/TR/2001/REC-SVG-20010904/DTD/svg10.dtd">
<svg version="1.0" xmlns="http://www.w3.org/2000/svg"
 width="750.000000pt" height="1333.000000pt" viewBox="0 0 750.000000 1333.000000"
 preserveAspectRatio="xMidYMid meet">

<g transform="translate(0.000000,1333.000000) scale(0.100000,-0.100000)"
fill="#000000" stroke="none">
<path d="M3600 8334 c-186 -16 -430 -89 -608 -180 -455 -233 -762 -633 -876
-1139 -59 -264 -36 -651 51 -855 4 -8 8 -26 9 -39 2 -14 17 -36 34 -51 16 -14
30 -30 30 -35 0 -6 -5 -3 -10 5 -8 13 -10 12 -10 -2 0 -10 5 -18 10 -18 6 0
10 -12 11 -27 l1 -28 8 25 7 25 8 -27 c10 -40 28 -35 19 4 -6 30 -5 31 11 18
16 -13 16 -12 0 25 -10 22 -24 61 -31 88 -7 26 -16 52 -19 57 -25 41 -63 250
-70 395 -15 266 36 526 150 769 35 75 49 99 114 201 95 148 291 342 441 436
30 19 64 40 75 46 57 36 230 113 305 136 205 63 259 71 485 71 226 0 295 -10
480 -71 184 -59 379 -165 520 -283 110 -92 291 -301 336 -388 8 -15 31 -56 51
-91 66 -115 123 -283 159 -470 18 -99 20 -138 16 -295 -5 -198 -23 -307 -78
-469 -84 -253 -236 -485 -438 -671 -72 -66 -87 -79 -149 -124 -53 -38 -59 -46
-58 -75 1 -18 7 -32 14 -31 7 1 21 2 32 3 24 1 26 14 5 34 -8 8 -11 17 -8 21
4 3 0 6 -7 6 -7 0 -10 3 -7 6 4 4 13 1 22 -6 8 -7 22 -10 30 -6 8 3 15 1 15
-5 0 -5 -7 -12 -15 -15 -8 -4 -12 -10 -9 -15 6 -10 70 23 89 45 6 7 33 27 60
46 112 78 297 289 383 438 130 225 176 356 219 622 22 142 12 418 -21 570 -71
327 -220 602 -453 836 -191 192 -363 298 -673 415 -14 5 -86 23 -160 39 -111
25 -164 31 -295 34 -88 2 -180 2 -205 0z"/>
<path d="M3277 7602 c-15 -16 -17 -52 -17 -293 0 -151 4 -280 9 -287 5 -8 17
-12 27 -10 18 3 19 19 24 268 l5 265 508 3 507 2 0 -158 c0 -158 5 -182 37
-182 23 0 34 80 31 225 -3 124 -6 146 -22 164 -19 21 -23 21 -556 21 -507 0
-538 -1 -553 -18z"/>
<path d="M3416 7454 c-14 -13 -16 -47 -16 -215 0 -205 6 -239 38 -239 38 0 42
18 42 207 l0 183 350 0 350 0 0 -51 c0 -80 27 -111 64 -73 12 11 16 36 16 90
0 125 42 114 -425 114 -354 0 -406 -2 -419 -16z"/>
<path d="M3871 7301 c-12 -8 -120 -273 -121 -297 0 -19 28 -36 49 -29 14 4 33
40 66 125 l46 118 77 -28 c42 -16 142 -54 222 -85 80 -31 172 -67 205 -80 33
-13 143 -56 245 -95 102 -39 188 -75 192 -78 3 -4 -15 -61 -41 -127 -26 -66
-108 -275 -181 -465 -73 -190 -134 -347 -136 -349 -2 -2 -64 19 -139 47 -74
28 -142 49 -150 46 -18 -7 -20 -50 -2 -57 264 -112 315 -125 341 -84 13 18
260 650 357 910 31 83 31 115 -2 135 -11 7 -122 52 -247 101 -125 49 -299 118
-387 153 -166 68 -372 148 -377 148 -2 0 -9 -4 -17 -9z"/>
<path d="M3957 7097 c-20 -17 -111 -273 -103 -292 10 -27 38 -30 57 -7 10 12
32 65 49 117 17 52 35 97 40 100 4 2 104 -33 221 -78 118 -46 264 -103 325
-126 l112 -43 -28 -76 c-44 -118 -163 -426 -167 -431 -2 -3 -59 17 -127 42
-68 26 -131 44 -139 41 -25 -9 -29 -36 -10 -54 30 -27 295 -124 311 -114 16
11 242 584 242 614 0 25 2 24 -235 115 -110 42 -252 97 -315 122 -192 76 -217
83 -233 70z"/>
<path d="M3190 6897 c-28 -14 -47 -47 -55 -98 -3 -19 -11 -43 -18 -53 -16 -21
-74 -35 -150 -36 -69 0 -112 -17 -152 -59 -29 -31 -30 -37 -33 -132 -5 -119 1
-149 28 -149 18 0 42 29 39 47 -1 4 -1 43 0 86 1 73 3 81 30 108 28 28 34 29
116 29 51 0 99 6 119 14 45 19 79 66 91 129 l10 52 235 0 235 0 7 -47 c15
-108 68 -148 198 -148 96 0 133 -15 149 -61 7 -21 11 -146 11 -361 0 -349 -4
-383 -48 -407 -14 -8 -192 -11 -557 -11 l-537 0 -29 29 -29 29 -1 154 c-1 84
-1 157 0 161 1 4 -3 17 -9 27 -15 29 -49 25 -60 -6 -14 -35 -13 -285 1 -339
14 -54 71 -111 121 -120 18 -3 277 -5 575 -3 531 3 542 3 570 24 15 11 38 39
50 61 22 39 23 46 23 413 l1 373 -25 36 c-42 61 -77 75 -193 79 -120 5 -130
12 -140 93 -4 36 -14 60 -29 76 -23 23 -26 23 -271 23 -178 0 -255 -4 -273
-13z"/>
<path d="M3348 6547 c-92 -35 -185 -133 -209 -220 -18 -66 -7 -184 22 -235 36
-63 94 -118 154 -147 43 -20 69 -25 133 -25 68 0 87 4 140 31 242 120 241 452
-1 576 -63 32 -180 42 -239 20z m195 -83 c61 -31 97 -65 123 -116 62 -123 11
-273 -114 -334 -54 -27 -164 -25 -219 4 -178 94 -170 356 15 444 48 23 152 24
195 2z"/>
<path d="M3890 6531 c-25 -47 36 -83 64 -38 8 12 8 22 0 35 -16 25 -51 27 -64
3z"/>
<path d="M2300 5950 c0 -5 7 -10 15 -10 8 0 15 5 15 10 0 6 -7 10 -15 10 -8 0
-15 -4 -15 -10z"/>
<path d="M4545 5250 c3 -5 11 -10 16 -10 6 0 7 5 4 10 -3 6 -11 10 -16 10 -6
0 -7 -4 -4 -10z"/>
</g>
</svg>
