<?xml version="1.0" standalone="no"?>
<!DOCTYPE svg PUBLIC "-//W3C//DTD SVG 20010904//EN"
 "http://www.w3.org/TR/2001/REC-SVG-20010904/DTD/svg10.dtd">
<svg version="1.0" xmlns="http://www.w3.org/2000/svg"
 width="177.000000pt" height="177.000000pt" viewBox="0 0 177.000000 177.000000"
 preserveAspectRatio="xMidYMid meet">

<g transform="translate(0.000000,177.000000) scale(0.100000,-0.100000)"
fill="#000000" stroke="none">
<path d="M795 1713 c-206 -25 -415 -139 -545 -296 -67 -80 -141 -221 -165
-312 -23 -87 -33 -219 -24 -304 10 -91 48 -223 62 -214 6 4 8 0 4 -11 -4 -9
-3 -15 2 -11 6 3 14 -3 20 -12 17 -30 12 2 -15 94 -100 342 35 709 329 897
252 161 573 166 832 13 84 -50 217 -181 264 -259 81 -139 115 -262 114 -418
-1 -242 -104 -460 -289 -614 -78 -65 -83 -70 -61 -63 9 4 17 2 17 -3 0 -6 -11
-10 -24 -10 -14 0 -28 -4 -31 -10 -3 -5 0 -8 7 -6 7 3 26 7 41 10 17 4 25 11
21 18 -4 7 -3 8 4 4 28 -17 168 117 242 230 142 217 169 511 71 753 -88 216
-270 395 -484 476 -116 43 -274 63 -392 48z"/>
<path d="M650 1334 c-13 -33 -13 -225 0 -259 20 -52 30 -13 30 116 l0 129 255
0 254 0 3 -82 c4 -114 22 -106 26 11 2 69 -1 97 -10 103 -7 4 -133 8 -281 8
l-267 0 -10 -26z"/>
<path d="M720 1164 c0 -105 2 -115 18 -112 14 3 17 17 20 96 l3 92 174 0 175
0 0 -29 c0 -17 4 -32 9 -35 16 -11 32 22 29 61 l-3 38 -212 3 -213 2 0 -116z"/>
<path d="M945 1191 c-3 -6 -17 -40 -31 -77 -19 -52 -22 -69 -12 -75 19 -12 25
-3 49 61 l21 59 57 -22 c240 -91 416 -165 414 -175 -3 -12 -174 -455 -178
-460 -2 -2 -31 9 -66 23 -61 24 -89 26 -89 6 0 -8 146 -71 164 -71 10 0 35 57
120 279 48 123 86 233 84 244 -2 15 -29 30 -113 62 -60 23 -173 68 -249 99
-144 58 -161 63 -171 47z"/>
<path d="M967 1028 c-14 -40 -23 -76 -21 -80 11 -17 32 -7 39 19 3 15 12 41
20 59 l13 32 144 -55 c78 -30 153 -59 165 -63 21 -9 21 -10 -24 -127 -25 -65
-49 -122 -53 -126 -4 -5 -36 1 -69 14 -41 14 -65 19 -72 12 -6 -6 -5 -13 3
-21 22 -18 151 -63 158 -55 19 21 121 306 113 314 -10 10 -363 149 -379 149
-6 0 -23 -32 -37 -72z"/>
<path d="M731 1000 c-132 -5 -130 -5 -150 -62 -9 -22 -17 -28 -58 -33 -84 -10
-97 -17 -111 -60 -15 -44 -7 -118 11 -112 7 2 13 26 15 53 4 67 22 84 87 84
57 0 80 16 94 66 l7 29 114 0 113 0 10 -30 c17 -52 35 -65 92 -65 83 0 85 -4
85 -216 0 -127 -4 -184 -12 -192 -17 -17 -559 -17 -576 0 -8 8 -12 45 -12 99
0 54 -4 90 -11 95 -21 13 -30 -21 -27 -109 3 -83 5 -90 31 -113 l28 -24 280 0
281 0 29 29 29 29 0 191 c0 183 -1 191 -23 216 -18 22 -34 27 -85 32 -57 5
-63 8 -68 32 -10 44 -12 49 -31 58 -10 4 -74 6 -142 3z"/>
<path d="M670 808 c-150 -76 -97 -302 70 -302 92 0 160 67 160 159 0 63 -28
110 -85 142 -51 29 -89 29 -145 1z m126 -34 c88 -42 85 -178 -4 -220 -44 -21
-93 -12 -134 25 -24 22 -32 37 -35 77 -5 44 -2 54 23 83 44 53 90 63 150 35z"/>
<path d="M962 803 c4 -21 33 -25 33 -3 0 8 -8 16 -18 18 -14 3 -18 -1 -15 -15z"/>
<path d="M180 500 c0 -5 5 -10 11 -10 5 0 7 5 4 10 -3 6 -8 10 -11 10 -2 0 -4
-4 -4 -10z"/>
</g>
</svg>
